HIERARCHY
ROOT Pelvis
{
	OFFSET 0.000000 0.000000 0.000000
	CHANNELS 6 Xposition Yposition Zposition Xrotation Yrotation Zrotation
	JOINT LeftUpLeg_virtual
	{
		OFFSET 0.000000 0.000000 0.000000
		CHANNELS 3 Xrotation Yrotation Zrotation
		JOINT LeftUpLeg
		{
			OFFSET 18.735201 -5.666702 -4.541200
			CHANNELS 3 Xrotation Yrotation Zrotation
			JOINT LeftLeg
			{
				OFFSET -0.021200 -31.938179 0.493100
				CHANNELS 3 Xrotation Yrotation Zrotation
				JOINT LeftFoot
				{
					OFFSET 0.021200 -31.938179 -4.336299
					CHANNELS 3 Xrotation Yrotation Zrotation
					JOINT LeftToeBase
					{
						OFFSET 0.943001 -26.722000 15.023500
						CHANNELS 3 Xrotation Yrotation Zrotation
						End Site
						{
							OFFSET 0 0 0
						}
					}
				}
			}
		}
	}
	JOINT RightUpLeg_virtual
	{
		OFFSET 0.000000 0.000000 0.000000
		CHANNELS 3 Xrotation Yrotation Zrotation
		JOINT RightUpLeg
		{
			OFFSET -18.735201 -5.666702 -4.541200
			CHANNELS 3 Xrotation Yrotation Zrotation
			JOINT RightLeg
			{
				OFFSET 0.018946 -31.938133 0.493100
				CHANNELS 3 Xrotation Yrotation Zrotation
				JOINT RightFoot
				{
					OFFSET -0.018946 -31.938126 -4.336299
					CHANNELS 3 Xrotation Yrotation Zrotation
					JOINT RightToeBase
					{
						OFFSET -0.943001 -26.722004 15.023500
						CHANNELS 3 Xrotation Yrotation Zrotation
						End Site
						{
							OFFSET 0 0 0
						}
					}
				}
			}
		}
	}
	JOINT Hips_virtual
	{
		OFFSET 0.000000 0.000000 0.000000
		CHANNELS 3 Xrotation Yrotation Zrotation
		JOINT Hips
		{
			OFFSET -0.000000 -0.000000 -0.000000
			CHANNELS 3 Xrotation Yrotation Zrotation
			JOINT Spine
			{
				OFFSET 0.000000 10.199997 -0.299500
				CHANNELS 3 Xrotation Yrotation Zrotation
				JOINT Spine1
				{
					OFFSET 0.000000 11.900002 -1.516600
					CHANNELS 3 Xrotation Yrotation Zrotation
					JOINT Spine2
					{
						OFFSET 0.000000 13.600006 -2.842500
						CHANNELS 3 Xrotation Yrotation Zrotation
						JOINT Neck_virtual
						{
							OFFSET 0.000000 0.000000 0.000000
							CHANNELS 3 Xrotation Yrotation Zrotation
							JOINT Neck
							{
								OFFSET 0.000000 9.624100 -2.890100
								CHANNELS 3 Xrotation Yrotation Zrotation
								JOINT Head
								{
									OFFSET 0.000000 14.068802 -1.351900
									CHANNELS 3 Xrotation Yrotation Zrotation
									End Site
									{
										OFFSET 0 0 0
									}
								}
							}
						}
						JOINT LeftShoulder_virtual
						{
							OFFSET 0.000000 0.000000 0.000000
							CHANNELS 3 Xrotation Yrotation Zrotation
							JOINT LeftShoulder
							{
								OFFSET 15.263000 10.923401 -0.547700
								CHANNELS 3 Xrotation Yrotation Zrotation
								JOINT LeftArm
								{
									OFFSET 25.438599 -2.830597 -13.032500
									CHANNELS 3 Xrotation Yrotation Zrotation
									JOINT LeftForeArm
									{
										OFFSET 29.960503 0.000000 0.000000
										CHANNELS 3 Xrotation Yrotation Zrotation
										JOINT LeftHand
										{
											OFFSET 27.849251 0.000000 0.000000
											CHANNELS 3 Xrotation Yrotation Zrotation
											End Site
											{
												OFFSET 0 0 0
											}
										}
									}
								}
							}
						}
						JOINT RightShoulder_virtual
						{
							OFFSET 0.000000 0.000000 0.000000
							CHANNELS 3 Xrotation Yrotation Zrotation
							JOINT RightShoulder
							{
								OFFSET -15.263000 10.923401 -0.547700
								CHANNELS 3 Xrotation Yrotation Zrotation
								JOINT RightArm
								{
									OFFSET -25.438599 -2.830597 -13.032500
									CHANNELS 3 Xrotation Yrotation Zrotation
									JOINT RightForeArm
									{
										OFFSET -29.960503 0.000000 0.000000
										CHANNELS 3 Xrotation Yrotation Zrotation
										JOINT RightHand
										{
											OFFSET -27.849251 0.000000 0.000000
											CHANNELS 3 Xrotation Yrotation Zrotation
											End Site
											{
												OFFSET 0 0 0
											}
										}
									}
								}
							}
						}
					}
				}
			}
		}
	}
}
MOTION
Frames: 4
Frame Time: 0.03333333
-3.117170 77.903687 3.292973 0.000000 0.000000 0.000000 -9.558763 -18.579884 2.016002 -57.856770 1.709350 21.490304 49.531367 -10.821566 -1.923207 -3.114156 -10.349009 -16.314950 0.000000 0.000000 0.000000 8.418438 -36.710600 -2.724163 -23.071553 -14.326445 -23.872020 47.116305 7.501238 0.487008 -11.482244 2.434976 17.847004 0.000000 0.000000 0.000000 1.153020 -20.213354 0.707459 5.164403 -33.857767 4.923679 10.961125 5.699477 -4.221576 5.131460 4.260617 -2.801900 0.000000 0.000000 0.000000 -0.580384 5.591462 -2.397502 -2.414317 2.997727 -0.501934 0.000000 0.000000 0.000000 -3.761062 3.790580 -2.996330 -4.586202 -4.114249 -7.780524 -30.276733 12.450047 -49.937507 -10.480432 -27.869357 -8.885448 0.000000 0.000000 0.000000 -4.319064 6.243137 -2.205126 -5.170285 21.028817 -0.298517 -19.048317 -20.616610 47.192919 -11.524173 25.717250 13.191379 0.000000 0.000000 0.000000 
-3.161595 77.930031 3.181577 0.000000 0.000000 0.000000 -9.596667 -18.467508 1.972237 -57.902710 1.746744 21.466837 49.554078 -10.839949 -1.954258 -3.046637 -10.365428 -16.396754 0.000000 0.000000 0.000000 8.430348 -36.716447 -2.746059 -23.020289 -14.325241 -23.875983 47.227527 7.560161 0.468810 -11.401634 2.510068 17.864594 0.000000 0.000000 0.000000 1.164039 -20.373075 0.739235 5.127444 -33.621193 4.775727 10.937520 5.660179 -4.204862 5.162928 4.253549 -2.811468 0.000000 0.000000 0.000000 -0.573591 5.607759 -2.423922 -2.425743 3.020314 -0.514862 0.000000 0.000000 0.000000 -3.814810 3.793608 -2.987290 -4.627824 -4.266287 -7.487182 -30.339796 12.470957 -50.040961 -10.479472 -27.862230 -8.996893 0.000000 0.000000 0.000000 -4.370493 6.303105 -2.251326 -5.141089 20.980461 -0.389821 -18.567381 -20.858815 47.193790 -11.392416 25.548118 13.215309 0.000000 0.000000 0.000000 
-3.253628 77.978935 2.972786 0.000000 0.000000 0.000000 -9.641002 -18.280513 1.914616 -57.966504 1.806668 21.442172 49.589547 -10.868846 -2.012108 -2.934968 -10.386816 -16.544564 0.000000 0.000000 0.000000 8.445506 -36.741691 -2.781280 -22.939358 -14.325471 -23.879981 47.441415 7.662542 0.433851 -11.244389 2.645823 17.891471 0.000000 0.000000 0.000000 1.192414 -20.699510 0.810834 5.036601 -33.134013 4.492300 10.891025 5.588290 -4.167340 5.220656 4.235511 -2.827632 0.000000 0.000000 0.000000 -0.564811 5.635855 -2.473009 -2.447184 3.059396 -0.538997 0.000000 0.000000 0.000000 -3.909140 3.795452 -2.974329 -4.697014 -4.553297 -6.943535 -30.429306 12.517530 -50.222128 -10.475548 -27.860523 -9.205838 0.000000 0.000000 0.000000 -4.461481 6.409084 -2.334104 -5.088150 20.871038 -0.550652 -17.709441 -21.305144 47.175878 -11.149588 25.250275 13.260142 0.000000 0.000000 0.000000 
-3.395661 78.045235 2.692269 0.000000 0.000000 0.000000 -9.645789 -18.078358 1.886153 -58.006597 1.866646 21.448092 49.623483 -10.895710 -2.089714 -2.816065 -10.394675 -16.732652 0.000000 0.000000 0.000000 8.450498 -36.810598 -2.816934 -22.862713 -14.332180 -23.879648 47.740266 7.785140 0.384003 -11.020485 2.820064 17.914365 0.000000 0.000000 0.000000 1.248787 -21.196503 0.934729 4.868781 -32.386681 4.098593 10.827885 5.494900 -4.104785 5.296445 4.201213 -2.845928 0.000000 0.000000 0.000000 -0.560959 5.668523 -2.538538 -2.476514 3.105526 -0.571394 0.000000 0.000000 0.000000 -4.021520 3.789615 -2.965300 -4.770688 -4.943625 -6.223505 -30.491272 12.596109 -50.440056 -10.466651 -27.883750 -9.488278 0.000000 0.000000 0.000000 -4.572498 6.538454 -2.438308 -5.019681 20.683671 -0.747136 -16.646634 -21.893715 47.107422 -10.836131 24.895684 13.321802 0.000000 0.000000 0.000000 
